<?xml version="1.0" encoding="UTF-8"?>
<svg xmlns="http://www.w3.org/2000/svg" width="181" height="60" viewBox="0 0 181 60" fill="none"><path d="M81.4772 24.568C84.7652 24.568 87.3572 23.368 89.0132 21.208L85.4372 18.016C84.4532 19.264 83.2772 19.984 81.7652 19.984C79.4132 19.984 77.8292 18.352 77.8292 15.784C77.8292 13.216 79.4132 11.584 81.7652 11.584C83.2772 11.584 84.4532 12.304 85.4372 13.552L89.0132 10.36C87.3572 8.2 84.7652 7 81.4772 7C76.0772 7 72.1172 10.624 72.1172 15.784C72.1172 20.944 76.0772 24.568 81.4772 24.568Z" fill="#E5652E"/><path d="M104.67 24.184H110.526L103.182 7.384H97.6142L90.2702 24.184H96.0302L97.1582 21.256H103.542L104.67 24.184ZM98.7182 17.176L100.35 12.952L101.982 17.176H98.7182Z" fill="#E5652E"/><path d="M119.374 24.568C124.582 24.568 127.198 21.976 127.198 18.904C127.198 12.712 117.91 14.392 117.91 12.376C117.91 11.8 118.438 11.32 120.094 11.32C121.558 11.32 123.118 11.728 124.774 12.568L126.478 8.464C124.726 7.48 122.398 7 120.142 7C114.934 7 112.318 9.544 112.318 12.664C112.318 18.928 121.606 17.224 121.606 19.336C121.606 19.912 121.03 20.248 119.422 20.248C117.574 20.248 115.462 19.648 113.878 18.712L112.054 22.84C113.734 23.872 116.566 24.568 119.374 24.568Z" fill="#E5652E"/><path d="M130.564 24.184H136.228V7.384H130.564V24.184Z" fill="#E5652E"/><path d="M151.674 7.384V15.016L145.29 7.384H140.634V24.184H146.154V16.552L152.538 24.184H157.194V7.384H151.674Z" fill="#E5652E"/><path d="M170.411 24.568C175.883 24.568 179.891 20.872 179.891 15.784C179.891 10.696 175.883 7 170.411 7C164.939 7 160.931 10.696 160.931 15.784C160.931 20.872 164.939 24.568 170.411 24.568ZM170.411 19.984C168.323 19.984 166.643 18.4 166.643 15.784C166.643 13.168 168.323 11.584 170.411 11.584C172.499 11.584 174.179 13.168 174.179 15.784C174.179 18.4 172.499 19.984 170.411 19.984Z" fill="#E5652E"/><path d="M81.5977 44.1839H85.0997L79.8297 32.2839H76.5147L71.2617 44.1839H74.6957L75.6307 41.8719H80.6627L81.5977 44.1839ZM76.6167 39.3899L78.1467 35.5819L79.6767 39.3899H76.6167Z" fill="#333333"/><path d="M91.976 44.4219C95.495 44.4219 97.569 42.4329 97.569 38.8799V32.2839H94.254V38.7779C94.254 40.8179 93.404 41.6339 92.01 41.6339C90.599 41.6339 89.749 40.8179 89.749 38.7779V32.2839H86.383V38.8799C86.383 42.4329 88.457 44.4219 91.976 44.4219Z" fill="#333333"/><path d="M104.711 44.4219C108.247 44.4219 109.981 42.6539 109.981 40.5799C109.981 36.1939 103.232 37.5539 103.232 35.7349C103.232 35.1399 103.742 34.6639 105.153 34.6639C106.19 34.6639 107.312 34.9699 108.451 35.5819L109.488 33.0829C108.315 32.4029 106.717 32.0459 105.17 32.0459C101.634 32.0459 99.9002 33.7799 99.9002 35.9049C99.9002 40.3249 106.666 38.9479 106.666 40.8349C106.666 41.4129 106.122 41.8039 104.728 41.8039C103.351 41.8039 101.855 41.3279 100.801 40.6309L99.6962 43.1129C100.818 43.8949 102.756 44.4219 104.711 44.4219Z" fill="#333333"/><path d="M114.583 44.1839H117.949V34.9529H121.587V32.2839H110.928V34.9529H114.583V44.1839Z" fill="#333333"/><path d="M130.882 44.1839H134.486L131.919 40.4439C133.398 39.7299 134.248 38.4379 134.248 36.6869C134.248 33.9669 132.208 32.2839 128.961 32.2839H123.521V44.1839H126.887V41.0219H128.723L130.882 44.1839ZM130.848 36.6869C130.848 37.7749 130.151 38.4209 128.757 38.4209H126.887V34.9359H128.757C130.151 34.9359 130.848 35.5819 130.848 36.6869Z" fill="#333333"/><path d="M145.693 44.1839H149.195L143.925 32.2839H140.61L135.357 44.1839H138.791L139.726 41.8719H144.758L145.693 44.1839ZM140.712 39.3899L142.242 35.5819L143.772 39.3899H140.712Z" fill="#333333"/><path d="M150.829 44.1839H159.873V41.5149H154.195V32.2839H150.829V44.1839Z" fill="#333333"/><path d="M161.885 44.1839H165.251V32.2839H161.885V44.1839Z" fill="#333333"/><path d="M177.234 44.1839H180.736L175.466 32.2839H172.151L166.898 44.1839H170.332L171.267 41.8719H176.299L177.234 44.1839ZM172.253 39.3899L173.783 35.5819L175.313 39.3899H172.253Z" fill="#333333"/><path d="M154.014 52.282C155.582 52.282 156.737 51.204 156.737 49.734C156.737 48.264 155.582 47.186 154.014 47.186C152.446 47.186 151.291 48.264 151.291 49.734C151.291 51.204 152.446 52.282 154.014 52.282ZM154.014 51.134C153.272 51.134 152.691 50.581 152.691 49.734C152.691 48.887 153.272 48.334 154.014 48.334C154.756 48.334 155.337 48.887 155.337 49.734C155.337 50.581 154.756 51.134 154.014 51.134Z" fill="#333333"/><path d="M161.047 47.284V49.895L158.884 47.284H157.743V52.184H159.101V49.573L161.264 52.184H162.405V47.284H161.047Z" fill="#333333"/><path d="M163.663 52.184H167.387V51.085H165.049V47.284H163.663V52.184Z" fill="#333333"/><path d="M168.215 52.184H169.601V47.284H168.215V52.184Z" fill="#333333"/><path d="M174.171 47.284V49.895L172.008 47.284H170.867V52.184H172.225V49.573L174.388 52.184H175.529V47.284H174.171Z" fill="#333333"/><path d="M178.159 51.113V50.217H180.336V49.181H178.159V48.355H180.63V47.284H176.787V52.184H180.721V51.113H178.159Z" fill="#333333"/><path d="M60 30C60.0015 32.2193 59.7574 34.432 59.2723 36.5976C58.5222 39.9437 57.1982 43.1347 55.359 46.0289C52.979 49.7921 49.7921 52.979 46.0289 55.359C43.1347 57.1982 39.9437 58.5222 36.5976 59.2723C32.2527 60.2426 27.7473 60.2426 23.4024 59.2723C20.0563 58.5222 16.8653 57.1982 13.9711 55.359C10.2079 52.979 7.02098 49.7921 4.64096 46.0289C2.80176 43.1347 1.47777 39.9437 0.727707 36.5976C-0.242569 32.2511 -0.242569 27.7441 0.727707 23.3976C1.98037 17.8631 4.77489 12.7967 8.78775 8.78465C12.8006 4.77265 17.8677 1.9792 23.4024 0.727714C27.7473 -0.242572 32.2527 -0.242572 36.5976 0.727714C42.1317 1.98059 47.198 4.77449 51.2106 8.78627C55.2233 12.798 58.0182 17.8638 59.2723 23.3976C59.7577 25.5648 60.0018 27.7791 60 30Z" fill="#FCE366"/><path d="M29.9997 47.9505C39.9142 47.9505 47.9515 39.9132 47.9515 29.9987C47.9515 20.0842 39.9142 12.0469 29.9997 12.0469C20.0851 12.0469 12.0479 20.0842 12.0479 29.9987C12.0479 39.9132 20.0851 47.9505 29.9997 47.9505Z" fill="#F8F7F3"/><path d="M36.5975 0.727714L34.959 6.74699H25.0409L23.4023 0.727714C27.7472 -0.242572 32.2526 -0.242572 36.5975 0.727714V0.727714Z" fill="#FFC700"/><path d="M36.5975 59.2721C32.2526 60.2424 27.7472 60.2424 23.4023 59.2721L25.0409 53.248H34.959L36.5975 59.2721Z" fill="#FFC700"/><path d="M55.3592 13.9707L49.9471 17.0647L42.9351 10.0478L46.0242 4.63574C49.7901 7.01606 52.9788 10.2048 55.3592 13.9707V13.9707Z" fill="#FFC700"/><path d="M17.0652 49.9471L13.9712 55.3592C10.2081 52.9791 7.02114 49.7922 4.64111 46.029L10.0532 42.9351L17.0652 49.9471Z" fill="#FFC700"/><path d="M59.9999 29.9999C60.0014 32.2192 59.7574 34.4318 59.2722 36.5975L53.2529 34.9589V25.0408L59.2722 23.3975C59.7576 25.5647 60.0017 27.779 59.9999 29.9999Z" fill="#FFC700"/><path d="M6.74698 25.0408V34.9589L0.727707 36.5975C-0.242569 32.251 -0.242569 27.744 0.727707 23.3975L6.74698 25.0408Z" fill="#FFC700"/><path d="M55.3592 46.029C52.9791 49.7922 49.7922 52.9791 46.029 55.3592L42.9351 49.9471L49.9471 42.9351L55.3592 46.029Z" fill="#FFC700"/><path d="M17.0652 10.0478L10.0532 17.0647L4.64111 13.9707C7.02143 10.2048 10.2102 7.01606 13.9761 4.63574L17.0652 10.0478Z" fill="#FFC700"/><path d="M57.6977 8.65392C57.6977 8.65392 54.9136 14.3692 51.0158 14.3692C47.118 14.3692 44.3339 10.3685 38.2088 10.3685C32.0842 10.3685 28.7433 12.6546 24.8455 18.941C20.9477 25.2278 12.5954 37.23 4.7998 33.2293C4.7998 33.2293 5.91346 36.0869 9.25441 36.0869C12.5954 36.0869 22.0614 32.0862 27.0728 21.7986L30.4138 24.6563L26.516 31.5147C26.516 31.5147 24.8455 31.5147 24.2887 32.6577C23.7319 33.8008 23.7319 35.5154 23.7319 35.5154V37.8015C23.7319 37.8015 23.175 40.6592 21.5046 41.8022C19.8341 42.9453 22.0614 45.2314 23.7319 44.0884C23.7319 44.0884 26.516 41.8022 26.516 40.6592C26.516 39.5161 26.516 37.8015 26.516 37.8015C26.516 37.8015 26.516 36.0869 28.7433 33.8008C30.9706 31.5147 34.311 28.657 34.311 28.657C34.311 28.657 39.8793 25.7994 39.8793 23.5132C39.8793 23.5132 42.1066 21.7986 45.4476 23.5132V26.9424C45.4476 26.9424 44.8907 28.657 43.2203 29.2285C43.2203 29.2285 43.2203 30.3716 44.3339 30.3716C45.4476 30.3716 47.6749 28.0855 47.6749 28.0855V26.3709C47.6749 26.3709 48.2317 23.5132 49.3453 22.3702H51.0158C51.0158 22.3702 54.9136 20.6556 56.0272 17.2264H58.2545C58.2545 17.2264 60.4818 18.941 61.0387 18.3694C61.5955 17.7979 62.1523 17.2264 62.1523 17.2264C62.1523 17.2264 62.7091 16.6548 62.1523 16.0838C61.5955 15.5123 60.4818 14.9408 60.4818 14.9408C60.4818 14.9408 61.0387 13.7977 59.925 13.2262C58.8114 12.6546 58.2545 12.0831 58.2545 12.0831C58.2545 12.0831 58.2545 10.94 59.3682 10.94C59.3682 10.94 59.925 9.79698 58.8114 8.65392C58.8114 8.65392 58.2545 8.08238 57.6977 8.65392V8.65392Z" fill="#E5652E"/></svg>